<?xml version="1.0" encoding="UTF-8"?>
<svg width="211px" height="215px" viewBox="0 0 211 215" version="1.1" xmlns="http://www.w3.org/2000/svg" xmlns:xlink="http://www.w3.org/1999/xlink">
    <!-- Generator: Sketch 53.2 (72643) - https://sketchapp.com -->
    <title>BP_Helios_logo</title>
    <desc>Created with Sketch.</desc>
    <g id="Page-1" stroke="none" stroke-width="1" fill="none" fill-rule="evenodd">
        <g id="BP_Helios_logo" fill-rule="nonzero">
            <g id="Layer_1">
                <path d="M210.6,125.7 C203.8,118.4 196.3,112.2 188.4,107.2 C196.2,102.2 203.7,95.9 210.5,88.6 C201.6,84.1 192.4,80.8 183.3,78.8 C188.9,71.4 193.8,62.9 197.8,53.8 C187.9,52.6 178.2,52.7 168.9,53.9 C171.7,45 173.4,35.4 173.9,25.4 C164.2,27.7 155,31 146.8,35.3 C146.3,26 144.7,16.4 141.8,6.8 C133.5,12.3 126,18.6 119.7,25.4 C116.1,16.8 111.2,8.4 105.2,0.4 C99.2,8.4 94.4,16.9 90.8,25.5 C84.5,18.6 77,12.3 68.7,6.9 L68.7,6.9 C65.8,16.4 64.2,26 63.7,35.3 C55.4,31 46.3,27.7 36.6,25.4 C37.2,35.4 38.9,45 41.7,53.9 C32.4,52.7 22.7,52.7 12.7,53.9 C16.6,63.1 21.5,71.5 27.2,78.9 C18.1,81 8.9,84.3 3.55271368e-15,88.8 C6.8,96.1 14.3,102.3 22.2,107.3 C14.4,112.3 6.9,118.6 0.1,125.9 C9,130.4 18.2,133.7 27.3,135.7 C21.7,143.1 16.8,151.6 12.8,160.7 C22.7,161.9 32.4,161.8 41.6,160.7 C38.8,169.6 37.1,179.2 36.6,189.1 C46.3,186.8 55.5,183.5 63.7,179.2 C64.1,188.5 65.8,198.1 68.7,207.7 C77,202.2 84.5,196 90.8,189.1 C94.4,197.7 99.3,206.2 105.3,214.2 C111.3,206.2 116.1,197.7 119.7,189.1 C126,196 133.5,202.3 141.9,207.7 C144.8,198.2 146.4,188.6 146.9,179.2 C155.2,183.5 164.4,186.8 174.1,189.1 C173.5,179.1 171.8,169.6 169,160.7 C178.2,161.9 188,161.9 197.9,160.7 C194,151.5 189.1,143.1 183.4,135.7 C192.5,133.5 201.7,130.2 210.6,125.7 Z" id="Path" fill="#009900"></path>
                <path d="M183.4,135.6 C178.2,128.8 172.3,122.8 165.9,117.9 C173.6,115.5 181.1,111.8 188.4,107.2 C181.1,102.6 173.6,99 165.9,96.6 C172.3,91.7 178.1,85.7 183.4,78.8 C175,76.9 166.7,76.1 158.6,76.5 C162.9,69.7 166.4,62.1 168.9,53.8 C160.4,54.9 152.3,57 144.8,60.1 C146.5,52.2 147.2,43.9 146.7,35.2 C139.1,39.2 132.2,43.9 126.3,49.4 C125.2,41.4 123,33.3 119.6,25.4 C113.7,31.8 108.9,38.6 105.2,45.8 C101.5,38.7 96.6,31.8 90.7,25.5 C87.4,33.4 85.2,41.5 84.2,49.4 C78.3,44 71.3,39.2 63.6,35.3 C63.2,43.9 63.9,52.3 65.6,60.2 C58.2,57.1 50.1,55.1 41.5,54 C44.1,62.2 47.6,69.8 51.9,76.6 C43.9,76.3 35.5,77.1 27,79 C32.2,85.8 38.1,91.8 44.5,96.7 C36.8,99.1 29.3,102.8 22,107.4 C29.3,112 36.8,115.6 44.5,118 C38.1,122.9 32.3,128.9 27,135.8 C35.4,137.7 43.7,138.5 51.7,138.1 C47.4,144.9 43.9,152.5 41.4,160.8 C49.9,159.7 58.1,157.6 65.5,154.5 C63.8,162.3 63.1,170.7 63.5,179.3 C71.2,175.3 78.1,170.6 84,165.2 C85.1,173.2 87.3,181.3 90.6,189.2 C96.4,182.8 101.3,176 105,168.9 C108.7,176 113.6,182.9 119.5,189.2 C122.8,181.3 125,173.2 126.1,165.2 C132,170.6 139,175.4 146.7,179.3 C147.1,170.7 146.4,162.3 144.7,154.5 C152.1,157.6 160.3,159.6 168.8,160.7 C166.2,152.5 162.7,144.9 158.4,138.1 C166.6,138.3 175,137.5 183.4,135.6 Z" id="Path" fill="#99CC00"></path>
                <path d="M146.8,107.3 C153.5,104.8 160,101.2 166,96.6 C158.8,94.3 151.5,93.2 144.4,93.1 C149.9,88.5 154.7,82.9 158.7,76.5 C151.2,76.8 143.9,78.2 137.2,80.7 C140.8,74.5 143.4,67.6 145,60.2 C138,63.1 131.7,66.9 126.2,71.5 C127.4,64.4 127.5,57 126.5,49.5 C120.9,54.6 116.2,60.4 112.6,66.6 C111.3,59.5 108.9,52.5 105.4,45.8 C102,52.5 99.5,59.4 98.3,66.4 C94.7,60.2 90,54.5 84.4,49.4 C83.4,56.9 83.5,64.3 84.7,71.4 C79.2,66.8 72.8,63 65.8,60.2 C67.4,67.6 70,74.5 73.6,80.7 C66.9,78.3 59.6,76.9 52.1,76.6 C56.2,83 61,88.5 66.4,93.2 C59.2,93.2 51.9,94.4 44.7,96.7 C50.7,101.3 57.1,104.9 63.9,107.3 C57.2,109.8 50.7,113.4 44.7,118 C51.9,120.2 59.2,121.4 66.3,121.5 C60.8,126.1 56,131.7 51.9,138.1 C59.4,137.8 66.7,136.4 73.4,134 C69.8,140.2 67.2,147.2 65.6,154.5 C72.6,151.6 78.9,147.8 84.4,143.2 C83.2,150.3 83.1,157.6 84.1,165.1 C89.7,160 94.4,154.3 98,148.1 C99.3,155.2 101.7,162.1 105.2,168.8 C108.7,162.1 111.1,155.2 112.4,148.1 C116,154.3 120.7,160 126.3,165.1 C127.3,157.6 127.2,150.2 126,143.2 C131.5,147.8 137.9,151.6 144.9,154.5 C143.3,147.1 140.7,140.2 137.1,134 C143.9,136.4 151.1,137.8 158.7,138.1 C154.6,131.7 149.8,126.2 144.3,121.5 C151.5,121.5 158.8,120.3 166,118 C159.9,113.3 153.5,109.7 146.8,107.3 Z" id="_x0032_" fill="#FFFF00"></path>
                <path d="M126.3,110.9 C133.3,110.9 140.2,109.6 146.7,107.2 C140.1,104.8 133.3,103.5 126.3,103.5 C132.9,101.1 138.9,97.5 144.2,93 C137.2,93 130.3,94.1 123.7,96.5 C129.1,92 133.5,86.6 137,80.5 C130.4,82.9 124.4,86.3 119,90.8 C122.5,84.7 124.8,78.1 126,71.3 C120.6,75.8 116.1,81.1 112.5,87.2 C113.7,80.3 113.6,73.3 112.4,66.4 C108.9,72.4 106.5,78.9 105.3,85.7 C104.1,78.8 101.6,72.2 98.1,66.2 C96.9,73.1 96.8,80.1 98,87 C94.5,80.9 89.9,75.6 84.6,71.1 C85.8,78 88.1,84.6 91.6,90.6 C86.2,86.1 80.1,82.7 73.6,80.3 C77.1,86.4 81.5,91.7 86.9,96.3 C80.3,93.9 73.4,92.8 66.5,92.8 C71.8,97.3 77.8,100.8 84.4,103.3 C77.4,103.3 70.5,104.6 63.9,107 C70.5,109.4 77.3,110.7 84.3,110.7 C77.7,113.1 71.7,116.7 66.3,121.2 C73.3,121.2 80.2,120.1 86.8,117.7 C81.4,122.2 77,127.6 73.5,133.7 C80.1,131.3 86.2,127.9 91.5,123.4 C88,129.5 85.7,136.1 84.5,143 C89.9,138.5 94.4,133.2 97.9,127.2 C96.7,134.1 96.8,141.1 98,147.9 C101.5,141.9 104,135.3 105.2,128.5 C106.4,135.4 108.9,141.9 112.4,148 C113.6,141.1 113.7,134.2 112.5,127.3 C116,133.4 120.6,138.7 125.9,143.1 C124.7,136.2 122.4,129.7 118.9,123.6 C124.3,128.1 130.4,131.5 137,133.9 C133.5,127.8 129.1,122.5 123.7,117.9 C130.3,120.3 137.2,121.4 144.2,121.4 C138.9,116.9 132.9,113.4 126.3,110.9 Z" id="_x0031_" fill="#FFFFFF"></path>
            </g>
        </g>
    </g>
</svg>